<svg xmlns="http://www.w3.org/2000/svg" width="292.767" height="154" viewBox="0 0 292.767 154">
  <g id="グループ_1238" data-name="グループ 1238" transform="translate(-1207.233 -180)">
    <g id="グループ_1236" data-name="グループ 1236" transform="translate(1270.178 180)">
      <g id="グループ_1235" data-name="グループ 1235" transform="translate(0 0)">
        <g id="塗り" transform="translate(60.789 49.353)">
          <rect id="長方形_1076" data-name="長方形 1076" width="8.352" height="19.986" transform="translate(47.004 49.679)" fill="#e7eae1"/>
          <rect id="長方形_1077" data-name="長方形 1077" width="7.986" height="7.987" transform="translate(47.186 23.323)" fill="#e7eae1"/>
          <rect id="長方形_1078" data-name="長方形 1078" width="8.571" height="19.986" transform="translate(0 49.679)" fill="#e7eae1"/>
          <rect id="長方形_1079" data-name="長方形 1079" width="8.571" height="19.986" transform="translate(11.201 49.679)" fill="#e7eae1"/>
          <rect id="長方形_1080" data-name="長方形 1080" width="7.986" height="7.986" transform="translate(5.893 21.957)" fill="#e7eae1"/>
          <rect id="長方形_1081" data-name="長方形 1081" width="7.986" height="7.986" transform="translate(5.893)" fill="#e7eae1"/>
          <rect id="長方形_1082" data-name="長方形 1082" width="7.986" height="7.986" transform="translate(88.48 21.957)" fill="#e7eae1"/>
          <rect id="長方形_1083" data-name="長方形 1083" width="8.571" height="19.986" transform="translate(82.587 49.679)" fill="#e7eae1"/>
          <path id="パス_105" data-name="パス 105" d="M1365.555,692.221a5.987,5.987,0,0,0,4.688-5.828,14.233,14.233,0,0,0-.835-4.232l-5.135-13.784-5.148,13.821a14.167,14.167,0,0,0-.821,4.195,5.972,5.972,0,0,0,4.621,5.808v-6.719a1.315,1.315,0,1,1,2.63,0Z" transform="translate(-1222.473 -626.67)" fill="#e7eae1"/>
          <rect id="長方形_1084" data-name="長方形 1084" width="7.986" height="7.986" transform="translate(88.48)" fill="#e7eae1"/>
          <rect id="長方形_1085" data-name="長方形 1085" width="8.571" height="19.986" transform="translate(93.788 49.679)" fill="#e7eae1"/>
          <path id="パス_106" data-name="パス 106" d="M1390.354,692.221a5.986,5.986,0,0,0,4.688-5.828,14.2,14.2,0,0,0-.835-4.232l-5.135-13.784-5.148,13.821a14.167,14.167,0,0,0-.821,4.195,5.971,5.971,0,0,0,4.62,5.807v-6.719a1.315,1.315,0,1,1,2.63,0Z" transform="translate(-1228.639 -626.67)" fill="#e7eae1"/>
        </g>
        <g id="線" transform="translate(0)">
          <path id="パス_107" data-name="パス 107" d="M1364.635,662.469a1.314,1.314,0,0,0-2.464,0l-6.393,17.167a16.652,16.652,0,0,0-.974,5.076,8.606,8.606,0,0,0,6.955,8.438c.1.02.2.028.3.044v2.976a1.315,1.315,0,0,0,2.63,0V693.2c.156-.023.314-.04.469-.072a8.628,8.628,0,0,0,6.849-8.42,16.711,16.711,0,0,0-.987-5.112Zm.05,28.071V683.8a1.315,1.315,0,1,0-2.63,0v6.719a5.972,5.972,0,0,1-4.621-5.808,14.167,14.167,0,0,1,.821-4.195L1363.4,666.7l5.135,13.784a14.233,14.233,0,0,1,.835,4.232A5.987,5.987,0,0,1,1364.684,690.539Z" transform="translate(-1160.814 -575.636)" fill="#a3b195"/>
          <path id="パス_108" data-name="パス 108" d="M1389.435,662.469a1.314,1.314,0,0,0-2.464,0l-6.393,17.167a16.648,16.648,0,0,0-.974,5.076,8.606,8.606,0,0,0,6.956,8.438c.1.02.2.028.294.044v2.976a1.315,1.315,0,0,0,2.63,0V693.2c.157-.023.314-.04.469-.072a8.628,8.628,0,0,0,6.849-8.42,16.683,16.683,0,0,0-.987-5.112Zm.049,28.071V683.8a1.315,1.315,0,1,0-2.63,0v6.719a5.971,5.971,0,0,1-4.62-5.807,14.167,14.167,0,0,1,.821-4.195L1388.2,666.7l5.135,13.784a14.2,14.2,0,0,1,.835,4.232A5.986,5.986,0,0,1,1389.484,690.539Z" transform="translate(-1166.98 -575.636)" fill="#a3b195"/>
          <path id="パス_109" data-name="パス 109" d="M1265.5,580.24a1.316,1.316,0,0,0-1.82,0l-24.525,23.5h-31.717l-24.525-23.5a1.315,1.315,0,0,0-1.82,0l-24.906,23.87a1.311,1.311,0,0,0-.4.949v70.585a1.315,1.315,0,0,0,2.63,0V605.621l23.591-22.61,23.591,22.61v70.024a1.315,1.315,0,0,0,2.63,0v-69.27h30.145v69.27a1.315,1.315,0,0,0,2.63,0V605.621l23.591-22.61,23.592,22.61v70.024a1.315,1.315,0,0,0,2.63,0V605.06a1.315,1.315,0,0,0-.406-.95Z" transform="translate(-1111.331 -555.313)" fill="#a3b195"/>
          <path id="パス_110" data-name="パス 110" d="M1248.879,675.488H1237.9a1.315,1.315,0,0,0-1.315,1.315v22.615a1.329,1.329,0,0,0,1.315,1.315h10.982a1.329,1.329,0,0,0,1.315-1.315V676.8A1.315,1.315,0,0,0,1248.879,675.488Zm-9.667,2.63h8.352V698.1h-8.352Z" transform="translate(-1131.42 -579.086)" fill="#a3b195"/>
          <path id="パス_111" data-name="パス 111" d="M1238.141,653.656h10.615a1.315,1.315,0,0,0,1.315-1.315V641.725a1.315,1.315,0,0,0-1.315-1.315h-10.615a1.315,1.315,0,0,0-1.315,1.315v10.617A1.315,1.315,0,0,0,1238.141,653.656Zm1.315-10.617h7.985v7.987h-7.985Z" transform="translate(-1131.48 -570.364)" fill="#a3b195"/>
          <path id="パス_112" data-name="パス 112" d="M1197.741,675.488h-22.4a1.314,1.314,0,0,0-1.315,1.315v22.615a1.329,1.329,0,0,0,1.315,1.315h22.4a1.329,1.329,0,0,0,1.315-1.315V676.8A1.314,1.314,0,0,0,1197.741,675.488Zm-9.886,2.63h8.571V698.1h-8.571Zm-11.2,0h8.571V698.1h-8.571Z" transform="translate(-1115.866 -579.086)" fill="#a3b195"/>
          <path id="パス_113" data-name="パス 113" d="M1181.868,650.523a1.314,1.314,0,0,0,1.315,1.315H1193.8a1.315,1.315,0,0,0,1.315-1.315V639.907a1.315,1.315,0,0,0-1.315-1.315h-10.616a1.315,1.315,0,0,0-1.315,1.315Zm2.63-9.3h7.986v7.986H1184.5Z" transform="translate(-1117.816 -569.912)" fill="#a3b195"/>
          <path id="パス_114" data-name="パス 114" d="M1183.183,622.615H1193.8a1.315,1.315,0,0,0,1.315-1.315V610.684a1.315,1.315,0,0,0-1.315-1.315h-10.616a1.315,1.315,0,0,0-1.315,1.315V621.3A1.315,1.315,0,0,0,1183.183,622.615ZM1184.5,612h7.986v7.986H1184.5Z" transform="translate(-1117.816 -562.646)" fill="#a3b195"/>
          <path id="パス_115" data-name="パス 115" d="M1307.657,675.488h-22.4a1.314,1.314,0,0,0-1.315,1.315v22.615a1.329,1.329,0,0,0,1.315,1.315h22.4a1.329,1.329,0,0,0,1.315-1.315V676.8A1.314,1.314,0,0,0,1307.657,675.488Zm-9.886,2.63h8.571V698.1h-8.571Zm-11.2,0h8.571V698.1h-8.571Z" transform="translate(-1143.195 -579.086)" fill="#a3b195"/>
          <path id="パス_116" data-name="パス 116" d="M1291.784,650.523a1.314,1.314,0,0,0,1.315,1.315h10.616a1.315,1.315,0,0,0,1.315-1.315V639.907a1.315,1.315,0,0,0-1.315-1.315H1293.1a1.315,1.315,0,0,0-1.315,1.315Zm2.63-9.3h7.986v7.986h-7.986Z" transform="translate(-1145.145 -569.912)" fill="#a3b195"/>
          <path id="パス_117" data-name="パス 117" d="M1293.1,622.615h10.616a1.315,1.315,0,0,0,1.315-1.315V610.684a1.315,1.315,0,0,0-1.315-1.315H1293.1a1.315,1.315,0,0,0-1.315,1.315V621.3A1.315,1.315,0,0,0,1293.1,622.615ZM1294.414,612h7.986v7.986h-7.986Z" transform="translate(-1145.145 -562.646)" fill="#a3b195"/>
          <path id="パス_118" data-name="パス 118" d="M1150.1,552.239h28.756a7.851,7.851,0,0,0,1.839-15.483,11.439,11.439,0,0,0-20.612-9.783,9.657,9.657,0,0,0-12.943,9.083,9.261,9.261,0,0,0,.06,1.044,7.846,7.846,0,0,0,2.9,15.138Zm-1.121-12.945a1.314,1.314,0,0,0,.993-1.591,7,7,0,0,1,6.827-8.676,6.938,6.938,0,0,1,3.287.818,1.315,1.315,0,0,0,1.827-.649,8.808,8.808,0,1,1,15.654,7.977,1.315,1.315,0,0,0,1.125,2h.164a5.22,5.22,0,0,1,0,10.441H1150.1a5.218,5.218,0,0,1-1.121-10.315Z" transform="translate(-1142.255 -521.185)" fill="#a3b195"/>
        </g>
      </g>
    </g>
    <g id="グループ_1237" data-name="グループ 1237" transform="translate(1207.233 257.146)">
      <g id="塗り-2" data-name="塗り" transform="translate(15.719 19.735)">
        <rect id="長方形_1086" data-name="長方形 1086" width="7.619" height="7.619" transform="translate(56.498 9.768)" fill="#e7eae1"/>
        <rect id="長方形_1087" data-name="長方形 1087" width="7.619" height="7.619" transform="translate(1.798)" fill="#e7eae1"/>
        <rect id="長方形_1088" data-name="長方形 1088" width="11.216" height="26.523" transform="translate(0 27.966)" fill="#e7eae1"/>
        <rect id="長方形_1089" data-name="長方形 1089" width="7.619" height="7.619" transform="translate(36.812 9.768)" fill="#e7eae1"/>
        <rect id="長方形_1090" data-name="長方形 1090" width="7.619" height="20.867" transform="translate(56.498 33.621)" fill="#e7eae1"/>
      </g>
      <g id="線-2" data-name="線" transform="translate(0 0)">
        <path id="パス_119" data-name="パス 119" d="M676.365,224.342H606.835a1.3,1.3,0,0,0-1.153.237l-20.117,16.247a1.313,1.313,0,0,0-.488,1.023v57.988a1.315,1.315,0,0,0,2.63,0v-57.36l18.8-15.185,18.8,15.185v57.36a1.315,1.315,0,0,0,2.63,0V243.072h39.725a1.315,1.315,0,1,0,0-2.63h-40.69L610.3,226.972H675.05v72.865a1.315,1.315,0,0,0,2.63,0v-74.18A1.315,1.315,0,0,0,676.365,224.342Z" transform="translate(-585.076 -224.298)" fill="#a3b195"/>
        <path id="パス_120" data-name="パス 120" d="M663.054,260.064H652.806a1.315,1.315,0,0,0-1.315,1.315v10.249a1.315,1.315,0,0,0,1.315,1.315h10.248a1.315,1.315,0,0,0,1.315-1.315V261.379A1.315,1.315,0,0,0,663.054,260.064Zm-1.315,10.249h-7.618v-7.619h7.618Z" transform="translate(-601.589 -233.191)" fill="#a3b195"/>
        <path id="パス_121" data-name="パス 121" d="M616.454,259.942a1.315,1.315,0,0,0,1.315-1.315V248.379a1.315,1.315,0,0,0-1.315-1.315H606.2a1.315,1.315,0,0,0-1.315,1.315v10.249a1.315,1.315,0,0,0,1.315,1.315Zm-8.934-10.249h7.62v7.619h-7.62Z" transform="translate(-590.002 -229.958)" fill="#a3b195"/>
        <path id="パス_122" data-name="パス 122" d="M617.657,284.284H603.812A1.314,1.314,0,0,0,602.5,285.6v29.153a1.329,1.329,0,0,0,1.315,1.315h13.845a1.329,1.329,0,0,0,1.315-1.315V285.6A1.314,1.314,0,0,0,617.657,284.284Zm-12.531,2.63h11.216v26.523H605.127Z" transform="translate(-589.407 -239.213)" fill="#a3b195"/>
        <path id="パス_123" data-name="パス 123" d="M689.254,260.064H679.006a1.315,1.315,0,0,0-1.315,1.315v10.249a1.315,1.315,0,0,0,1.315,1.315h10.248a1.315,1.315,0,0,0,1.315-1.315V261.379A1.315,1.315,0,0,0,689.254,260.064Zm-1.315,10.249h-7.618v-7.619h7.618Z" transform="translate(-608.103 -233.191)" fill="#a3b195"/>
        <path id="パス_124" data-name="パス 124" d="M689.254,291.811H679.006a1.315,1.315,0,0,0-1.315,1.315v23.5a1.329,1.329,0,0,0,1.315,1.315h10.248a1.329,1.329,0,0,0,1.315-1.315v-23.5A1.315,1.315,0,0,0,689.254,291.811Zm-8.933,2.63h7.618v20.868h-7.618Z" transform="translate(-608.103 -241.084)" fill="#a3b195"/>
      </g>
    </g>
  </g>
</svg>
