<svg xmlns="http://www.w3.org/2000/svg" width="25.495" height="20.706" viewBox="0 0 25.495 20.706">
  <path id="Icon_awesome-twitter" data-name="Icon awesome-twitter" d="M22.874,8.541c.016.226.016.453.016.679A14.765,14.765,0,0,1,8.024,24.087,14.766,14.766,0,0,1,0,21.742a10.809,10.809,0,0,0,1.262.065,10.464,10.464,0,0,0,6.487-2.232A5.234,5.234,0,0,1,2.863,15.95a6.589,6.589,0,0,0,.987.081,5.526,5.526,0,0,0,1.375-.178,5.226,5.226,0,0,1-4.19-5.128V10.66a5.262,5.262,0,0,0,2.362.663A5.233,5.233,0,0,1,1.779,4.335,14.852,14.852,0,0,0,12.553,9.8a5.9,5.9,0,0,1-.129-1.2,5.23,5.23,0,0,1,9.043-3.575,10.287,10.287,0,0,0,3.316-1.262,5.211,5.211,0,0,1-2.3,2.879,10.475,10.475,0,0,0,3.009-.809,11.232,11.232,0,0,1-2.621,2.7Z" transform="translate(0 -3.381)" fill="#585a55"/>
</svg>
