<svg xmlns="http://www.w3.org/2000/svg" width="22.32" height="22.315" viewBox="0 0 22.32 22.315">
  <path id="Icon_awesome-instagram" data-name="Icon awesome-instagram" d="M11.157,7.674A5.721,5.721,0,1,0,16.879,13.4,5.712,5.712,0,0,0,11.157,7.674Zm0,9.441a3.72,3.72,0,1,1,3.72-3.72A3.726,3.726,0,0,1,11.157,17.115Zm7.29-9.675a1.334,1.334,0,1,1-1.334-1.334A1.331,1.331,0,0,1,18.447,7.44Zm3.789,1.354a6.6,6.6,0,0,0-1.8-4.676,6.647,6.647,0,0,0-4.676-1.8c-1.842-.1-7.365-.1-9.207,0a6.638,6.638,0,0,0-4.676,1.8,6.626,6.626,0,0,0-1.8,4.676c-.1,1.842-.1,7.365,0,9.207a6.6,6.6,0,0,0,1.8,4.676,6.656,6.656,0,0,0,4.676,1.8c1.842.1,7.365.1,9.207,0a6.6,6.6,0,0,0,4.676-1.8A6.648,6.648,0,0,0,22.237,18c.1-1.842.1-7.36,0-9.2Zm-2.38,11.179a3.766,3.766,0,0,1-2.121,2.121c-1.469.583-4.955.448-6.578.448s-5.114.129-6.578-.448a3.766,3.766,0,0,1-2.121-2.121C1.876,18.5,2.01,15.019,2.01,13.4s-.129-5.114.448-6.578A3.766,3.766,0,0,1,4.58,4.7c1.469-.583,4.955-.448,6.578-.448s5.114-.129,6.578.448a3.766,3.766,0,0,1,2.121,2.121c.583,1.469.448,4.955.448,6.578S20.439,18.509,19.856,19.973Z" transform="translate(0.005 -2.238)" fill="#585a55"/>
</svg>
