<?xml version="1.0" encoding="utf-8"?>
<!-- Generator: Adobe Illustrator 27.2.0, SVG Export Plug-In . SVG Version: 6.00 Build 0)  -->
<svg version="1.1" xmlns="http://www.w3.org/2000/svg" xmlns:xlink="http://www.w3.org/1999/xlink" x="0px" y="0px"
	 viewBox="0 0 371.3 119.1" style="enable-background:new 0 0 371.3 119.1;" xml:space="preserve">
<style type="text/css">
	.st0{fill:#A4AF97;}
	.st1{fill:#585A55;}
</style>
<g id="レイヤー_1">
</g>
<g id="編集モード">
</g>
<g id="パス">
	<g>
		<g>
			<path class="st0" d="M84.1,54.4c0,0.6,0.3,0.6,0.3,1.2c0,0.6-0.1,0.6-0.1,1.2c0,0.6,0.3,0.6,0.3,1.2c0,0.6,0,0.6-0.4,1
				c-0.4,0.4-0.4,0.4-1,0.4c-0.6,0-0.6-0.1-1.2-0.1c-0.6,0-0.6-0.4-1.2-0.4s-0.7,0.6-1.1,0.2c-0.4-0.4,0.2-0.5,0.2-1.1
				c0-0.6-0.4-0.6-0.4-1.2c0-0.6,0.2-0.6,0.2-1.2s-0.3-0.7,0.1-1.1c0.4-0.4,0.5-0.3,1.1-0.3c0.6,0,0.6,0.3,1.2,0.3
				c0.6,0,0.6-0.1,1.2-0.1c0.6,0,0.6-0.2,1.2-0.2 M87.4,51.1c-0.6,0-0.6,0.3-1.2,0.3c-0.6,0-0.6-0.1-1.2-0.1c-0.6,0-0.6,0.3-1.2,0.3
				c-0.6,0-0.6-0.4-1.2-0.4c-0.6,0-0.6,0.4-1.2,0.4c-0.6,0-0.6-0.1-1.2-0.1c-0.6,0-0.6-0.4-1.2-0.4c-0.6,0-0.6,0.2-1.2,0.2
				c-0.6,0-1-0.5-1.4-0.1c-0.4,0.4,0.4,0.8,0.4,1.4c0,0.6-0.2,0.6-0.2,1.2c0,0.6-0.1,0.6-0.1,1.2c0,0.6,0.4,0.6,0.4,1.2
				c0,0.6-0.3,0.6-0.3,1.2c0,0.6,0.1,0.6,0.1,1.2c0,0.6,0.2,0.6,0.2,1.2c0,0.6-0.1,0.6-0.1,1.2c0,0.6-0.3,0.6,0.1,1
				c0.4,0.4,0.4,0.3,1,0.3c0.6,0,0.6-0.3,1.2-0.3c0.6,0,0.6,0.3,1.2,0.3c0.6,0,0.6-0.1,1.2-0.1c0.6,0,0.6,0.2,1.2,0.2
				c0.6,0,0.6-0.1,1.2-0.1c0.6,0,0.6-0.3,1.2-0.3c0.6,0,0.6,0.3,1.2,0.3c0.6,0,0.8,0.3,1.2-0.1c0.4-0.4,0.3-0.6,0.3-1.2
				c0-0.6-0.4-0.6-0.4-1.2c0-0.6,0.2-0.6,0.2-1.2c0-0.6,0.1-0.6,0.1-1.2c0-0.6,0-0.6,0-1.2c0-0.6-0.5-0.6-0.5-1.2
				c0-0.6,0.1-0.6,0.1-1.2c0-0.6,0.1-0.6,0.1-1.2c0-0.6,0.2-0.6,0.2-1.2C87.5,51.2,87.4,51.1,87.4,51.1z"/>
		</g>
		<g>
			<path class="st0" d="M100,54.4c0,0.6,0.1,0.6,0.1,1.2c0,0.6,0.4,0.6,0.4,1.2c0,0.6,0,0.6,0,1.2s0.1,0.7-0.3,1.1
				C99.7,59.5,99.6,59,99,59c-0.6,0-0.6,0.1-1.2,0.1c-0.6,0-0.6,0.1-1.2,0.1s-0.7,0.4-1.1-0.1c-0.4-0.4-0.2-0.5-0.2-1.1
				c0-0.6,0.2-0.6,0.2-1.2c0-0.6-0.2-0.6-0.2-1.2c0-0.6-0.5-0.8,0-1.2c0.4-0.4,0.6,0.2,1.2,0.2c0.6,0,0.6-0.3,1.2-0.3
				c0.6,0,0.6,0.3,1.2,0.3c0.6,0,0.6,0,1.2,0 M103.3,51c-0.6,0-0.6,0.1-1.2,0.1c-0.6,0-0.6,0.4-1.2,0.4c-0.6,0-0.6,0-1.2,0
				c-0.6,0-0.6-0.3-1.2-0.3c-0.6,0-0.6-0.1-1.2-0.1c-0.6,0-0.6,0.1-1.2,0.1c-0.6,0-0.6,0.1-1.2,0.1c-0.6,0-0.6-0.1-1.2-0.1
				c-0.6,0-0.8-0.2-1.2,0.2c-0.4,0.4-0.2,0.6-0.2,1.2c0,0.6,0.2,0.6,0.2,1.2c0,0.6,0,0.6,0,1.2c0,0.6-0.2,0.6-0.2,1.2
				c0,0.6,0.3,0.6,0.3,1.2c0,0.6-0.3,0.6-0.3,1.2c0,0.6,0,0.6,0,1.2c0,0.6,0,0.6,0,1.2c0,0.6-0.2,0.7,0.2,1.2
				c0.4,0.4,0.6,0.1,1.2,0.1c0.6,0,0.6-0.3,1.2-0.3c0.6,0,0.6,0.4,1.2,0.4c0.6,0,0.6-0.4,1.2-0.4c0.6,0,0.6,0.1,1.2,0.1
				c0.6,0,0.6,0.4,1.2,0.4c0.6,0,0.6-0.2,1.2-0.2c0.6,0,0.6,0.1,1.2,0.1c0.6,0,0.6,0,1.1-0.4c0.4-0.4,0.2-0.5,0.2-1.1
				c0-0.6,0.1-0.6,0.1-1.2c0-0.6-0.4-0.6-0.4-1.2c0-0.6,0.3-0.6,0.3-1.2c0-0.6-0.1-0.6-0.1-1.2c0-0.6-0.2-0.6-0.2-1.2
				c0-0.6,0.1-0.6,0.1-1.2c0-0.6-0.2-0.6-0.2-1.2s0.4-0.6,0.4-1.2C103.4,51.2,103.3,51,103.3,51z"/>
		</g>
		<g>
			<path class="st0" d="M84.3,69.8c0,0.6,0.3,0.6,0.3,1.2c0,0.6-0.5,0.6-0.5,1.2c0,0.6,0.4,0.6,0.4,1.2s0.4,0.9-0.1,1.3
				c-0.4,0.4-0.7-0.3-1.3-0.3c-0.6,0-0.6,0.3-1.2,0.3c-0.6,0-0.6-0.4-1.2-0.4s-0.6,0.5-1,0.1c-0.4-0.4-0.1-0.4-0.1-1
				c0-0.6-0.1-0.6-0.1-1.2c0-0.6-0.1-0.6-0.1-1.2s-0.4-0.8,0.1-1.3c0.4-0.4,0.7,0.2,1.2,0.2c0.6,0,0.6-0.2,1.2-0.2
				c0.6,0,0.6,0,1.2,0C83.7,69.6,83.7,69.8,84.3,69.8 M87.4,66.6c-0.6,0-0.6,0.3-1.2,0.3c-0.6,0-0.6-0.5-1.2-0.5
				c-0.6,0-0.6,0.4-1.2,0.4c-0.6,0-0.6,0-1.2,0c-0.6,0-0.6-0.3-1.2-0.3c-0.6,0-0.6,0.3-1.2,0.3c-0.6,0-0.6-0.4-1.2-0.4
				c-0.6,0-0.6,0-1.2,0c-0.6,0-0.9-0.3-1.3,0.1c-0.4,0.4,0.1,0.7,0.1,1.3c0,0.6,0.1,0.6,0.1,1.2c0,0.6,0,0.6,0,1.2
				c0,0.6-0.2,0.6-0.2,1.2c0,0.6,0.2,0.6,0.2,1.2c0,0.6,0,0.6,0,1.2c0,0.6-0.2,0.6-0.2,1.2c0,0.6-0.2,0.6-0.2,1.2
				c0,0.6-0.3,0.9,0.1,1.4c0.4,0.4,0.7-0.3,1.4-0.3c0.6,0,0.6,0,1.2,0c0.6,0,0.6,0.3,1.2,0.3c0.6,0,0.6,0.1,1.2,0.1
				c0.6,0,0.6-0.1,1.2-0.1c0.6,0,0.6-0.1,1.2-0.1c0.6,0,0.6,0.1,1.2,0.1c0.6,0,0.6-0.2,1.2-0.2c0.6,0,0.9,0.6,1.3,0.2
				c0.4-0.4-0.1-0.7-0.1-1.3c0-0.6,0-0.6,0-1.2c0-0.6,0.2-0.6,0.2-1.2c0-0.6-0.3-0.6-0.3-1.2c0-0.6,0.3-0.6,0.3-1.2
				c0-0.6,0-0.6,0-1.2c0-0.6,0-0.6,0-1.2c0-0.6-0.3-0.6-0.3-1.2C87.3,67.3,87.5,67.3,87.4,66.6C87.5,66.6,87.4,66.6,87.4,66.6z"/>
		</g>
		<g>
			<path class="st0" d="M100.2,69.8c0,0.6-0.2,0.6-0.2,1.2c0,0.6,0.1,0.6,0.1,1.2c0,0.6,0.1,0.6,0.1,1.2s0.5,0.8,0.1,1.2
				c-0.4,0.4-0.6-0.1-1.2-0.1c-0.6,0-0.6-0.1-1.2-0.1c-0.6,0-0.6,0.3-1.2,0.3s-0.8,0.3-1.3-0.1c-0.4-0.4,0-0.7,0-1.3
				c0-0.6,0.2-0.6,0.2-1.2c0-0.6,0-0.6,0-1.2s-0.6-0.7-0.1-1.1c0.4-0.4,0.5-0.3,1.1-0.3c0.6,0,0.6,0.2,1.2,0.2
				c0.6,0,0.6-0.2,1.2-0.2c0.6,0,0.6,0.3,1.2,0.3 M103.3,66.7c-0.6,0-0.6-0.2-1.2-0.2c-0.6,0-0.6,0.1-1.2,0.1
				c-0.6,0-0.6,0.1-1.2,0.1c-0.6,0-0.6,0.1-1.2,0.1c-0.6,0-0.6-0.1-1.2-0.1c-0.6,0-0.6-0.1-1.2-0.1c-0.6,0-0.6,0.3-1.2,0.3
				c-0.6,0-0.6-0.1-1.2-0.1c-0.6,0-0.8-0.5-1.2-0.1c-0.4,0.4-0.2,0.6-0.2,1.2c0,0.6,0,0.6,0,1.2c0,0.6,0.1,0.6,0.1,1.2
				c0,0.6,0.4,0.6,0.4,1.2c0,0.6-0.2,0.6-0.2,1.2c0,0.6,0.2,0.6,0.2,1.2c0,0.6-0.3,0.6-0.3,1.2c0,0.6,0.1,0.6,0.1,1.2
				c0,0.6-0.2,0.6,0.2,1c0.4,0.4,0.4,0.4,1,0.4c0.6,0,0.6-0.4,1.2-0.4c0.6,0,0.6,0,1.2,0c0.6,0,0.6,0.3,1.2,0.3
				c0.6,0,0.6-0.3,1.2-0.3c0.6,0,0.6,0.4,1.2,0.4c0.6,0,0.6,0,1.2,0c0.6,0,0.6-0.1,1.2-0.1c0.6,0,0.8,0.3,1.2-0.1
				c0.4-0.4-0.1-0.6-0.1-1.2c0-0.6,0-0.6,0-1.2c0-0.6,0.2-0.6,0.2-1.2c0-0.6-0.2-0.6-0.2-1.2c0-0.6,0-0.6,0-1.2
				c0-0.6,0.2-0.6,0.2-1.2c0-0.6,0.2-0.6,0.2-1.2c0-0.6-0.1-0.6-0.1-1.2c0-0.6-0.4-0.6-0.4-1.2C103.1,66.7,103.3,66.7,103.3,66.7z"
				/>
		</g>
		<g>
			<path class="st0" d="M10.7,28.6c0.5-0.3,0.5-0.3,1.1-0.6c0.5-0.3,0.4-0.4,1-0.7c0.5-0.3,0.6-0.2,1.1-0.5c0.5-0.3,0.3-0.6,0.8-0.9
				c0.5-0.3,0.5-0.3,1-0.6c0.5-0.3,0.7,0,1.2-0.3c0.5-0.3,0.4-0.4,1-0.7c0.5-0.3,0.6-0.1,1.1-0.4c0.5-0.3,0.5-0.3,1-0.6
				c0.5-0.3,0.4-0.6,0.9-0.9c0.5-0.3,0.6-0.2,1.1-0.5c0.5-0.3,0.6-0.1,1.2-0.4c0.5-0.3,0.4-0.5,0.9-0.8c0.5-0.3,0.5-0.3,1-0.6
				c0.5-0.3,0.7-0.1,1.2-0.4c0.5-0.3,0.6-0.2,1.1-0.5c0.5-0.3,0.5-0.3,1-0.6c0.5-0.3,0.4-0.4,1-0.7c0.5-0.3,0.5-0.4,1-0.7
				c0.5-0.3,0.5-0.4,1-0.7c0.5-0.3,0.5-0.3,1.1-0.5c0.5-0.3,0.7,0,1.2-0.3c0.5-0.3,0.3-0.7,0.8-1c0.5-0.3,0.5-0.3,1-0.6
				c0.5-0.3,0.8,0.1,1.3-0.2c0.5-0.3,0.3-0.7,0.8-1c0.5-0.3,0.6-0.2,1.1-0.5c0.5-0.3,0.5-0.3,1-0.6c0.5-0.3,0.5-0.4,1-0.7
				c0.5-0.3,0.6-0.1,1.1-0.4c0.5-0.3,0.5-0.3,1-0.6c0.5-0.3,0.5-0.3,1-0.6c0.5-0.3,0.4-0.4,1-0.7c0.5-0.3,0.5-0.3,1-0.6
				c0.5-0.3,0.8,0.2,1.3-0.1c0.5-0.3,0.4-0.5,0.9-0.8c0.5-0.3,0.5-0.3,1.1-0.6c0.5-0.3,0.4-0.4,1-0.7c0.5-0.3,0.7,0.1,1.3-0.2
				c0.5-0.3,0.5-0.4,0.9-0.8c0-0.4,0.1-0.7,0.1-1.1c0-0.4-0.2-0.7-0.2-1.1c0-0.4,0-0.8,0-1.1c0-0.6,0.6-1.2,0-1.1
				c-0.6,0.1-0.5,0.3-1,0.6c-0.5,0.3-0.4,0.5-0.9,0.8c-0.5,0.3-0.6,0.1-1.2,0.4c-0.5,0.3-0.6,0.2-1.1,0.5c-0.5,0.3-0.5,0.4-1,0.7
				C46.6,3.8,46.6,3.7,46,4c-0.5,0.3-0.4,0.5-0.9,0.8c-0.5,0.3-0.5,0.3-1,0.6c-0.5,0.3-0.6,0.1-1.2,0.4C42.5,6,42.6,6.2,42,6.5
				C41.5,6.8,41.5,6.7,41,7c-0.5,0.3-0.5,0.3-1,0.6c-0.5,0.3-0.5,0.3-1,0.6c-0.5,0.3-0.4,0.5-0.9,0.8c-0.5,0.3-0.7,0-1.2,0.3
				c-0.5,0.3-0.5,0.3-1,0.6c-0.5,0.3-0.5,0.3-1,0.6c-0.5,0.3-0.4,0.5-0.9,0.8c-0.5,0.3-0.6,0.1-1.1,0.4c-0.5,0.3-0.4,0.4-1,0.7
				c-0.5,0.3-0.4,0.4-1,0.7c-0.5,0.3-0.6,0.1-1.2,0.3c-0.5,0.3-0.4,0.5-0.9,0.8c-0.5,0.3-0.7-0.1-1.2,0.2c-0.5,0.3-0.3,0.7-0.8,1
				c-0.5,0.3-0.7,0-1.2,0.3c-0.5,0.3-0.5,0.3-1,0.6c-0.5,0.3-0.5,0.4-1,0.7c-0.5,0.3-0.7,0-1.2,0.3c-0.5,0.3-0.3,0.6-0.9,0.9
				c-0.5,0.3-0.5,0.3-1,0.6c-0.5,0.3-0.6,0.1-1.1,0.4c-0.5,0.3-0.6,0.1-1.1,0.4c-0.5,0.3-0.4,0.5-0.9,0.8c-0.5,0.3-0.4,0.5-0.9,0.8
				c-0.5,0.3-0.7,0-1.2,0.3c-0.5,0.3-0.5,0.4-1,0.7c-0.5,0.3-0.4,0.5-0.9,0.7c-0.5,0.3-0.7-0.1-1.2,0.2c-0.5,0.3-0.6,0.2-1.1,0.5
				c-0.5,0.3-0.4,0.6-0.9,0.9c-0.5,0.3-0.5,0.4-1,0.7c-0.3,0.2-0.8,0.2-1.1,0.4c-0.3,0.2-0.5,0.6-0.8,0.9c-0.3,0.2-0.7,0.4-1,0.6
				c-0.3,0.3-0.4,0.7-0.6,1c-0.3,0.3-0.9,0.3-1.2,0.6C4,29,4.2,29.6,4,29.9c-0.2,0.3-0.6,0.5-0.8,0.9C3,31.1,3,31.5,2.8,31.9
				c-0.2,0.4-0.5,0.6-0.6,1c-0.1,0.4,0,0.8-0.2,1.2c-0.1,0.4-0.2,0.7-0.3,1.1c-0.1,0.4-0.1,0.8-0.2,1.1c0,0.4-0.4,0.8-0.4,1.1
				c0,0.6-0.1,0.6-0.1,1.2c0,0.6,0.4,0.6,0.4,1.2c0,0.6-0.1,0.6-0.1,1.2c0,0.6-0.3,0.6-0.3,1.2c0,0.6,0.1,0.6,0.1,1.2
				c0,0.6,0.3,0.6,0.3,1.2c0,0.6-0.2,0.6-0.2,1.2c0,0.6,0.1,0.6,0.1,1.2c0,0.6-0.3,0.6-0.3,1.2c0,0.6,0.2,0.6,0.2,1.2
				c0,0.6,0.1,0.6,0.1,1.2c0,0.6-0.3,0.6-0.3,1.2c0,0.6,0,0.6,0,1.2c0,0.6,0.2,0.6,0.2,1.2c0,0.6,0.1,0.6,0.1,1.2c0,0.6,0,0.6,0,1.2
				c0,0.6-0.3,0.6-0.3,1.2c0,0.6,0.4,0.6,0.4,1.2c0,0.6-0.3,0.6-0.3,1.2c0,0.6,0.1,0.6,0.1,1.2c0,0.6-0.3,0.6-0.3,1.2
				c0,0.6,0.4,0.6,0.4,1.2c0,0.6-0.1,0.6-0.1,1.2c0,0.6-0.4,0.6-0.4,1.2c0,0.6,0.5,0.6,0.5,1.2c0,0.6-0.3,0.6-0.3,1.2
				c0,0.6,0.3,0.6,0.3,1.2c0,0.6-0.2,0.6-0.2,1.2c0,0.6,0,0.6,0,1.2c0,0.6,0.2,0.6,0.2,1.2c0,0.6-0.3,0.6-0.3,1.2c0,0.6,0,0.6,0,1.2
				s0.2,0.6,0.2,1.2c0,0.4,0,0.9,0,1.3c0.1,0.4,0.1,0.9,0.2,1.3c0.1,0.4,0.5,0.7,0.7,1.1c0.2,0.4,0,1,0.2,1.3
				c0.2,0.4,0.9,0.4,1.2,0.7C4,82.8,4.4,83,4.7,83.3C5,83.5,5.2,83.8,5.5,84c0.3,0.2,0.6,0.4,1,0.5c0.3,0.1,0.6,0.4,1,0.5
				c0.4,0.1,0.8,0,1.1,0.1c0.4,0.1,0.7,0.1,1.1,0.1c0.6,0,0.6-0.2,1.2-0.2c0.6,0,0.6,0.4,1.2,0.4c0.6,0,0.6,0.1,1.2,0.1
				c0.6,0,0.6-0.5,1.2-0.5c0.6,0,0.6,0.4,1.2,0.4c0.6,0,0.6-0.2,1.2-0.2c0.6,0,0.6,0.3,1.2,0.3c0.6,0,0.6-0.1,1.2-0.1
				c0.6,0,0.6-0.1,1.2-0.1c0.6,0,0.6,0.1,1.2,0.1c0.6,0,0.6,0,1.2,0c0.6,0,0.6-0.1,1.2-0.1c0.6,0,0.6-0.1,1.2-0.1
				c0.6,0,0.6,0.1,1.2,0.1c0.6,0,0.6-0.1,1.2-0.1c0.6,0,0.6,0,1.2,0c0.6,0,0.6-0.1,1.2-0.1c0.6,0,0.6,0,1.2,0c0.6,0,0.6,0.2,1.2,0.2
				c0.6,0,0.6-0.4,1.2-0.4c0.6,0,0.6,0.3,1.2,0.3c0.6,0,0.6-0.1,1.2-0.1c0.6,0,0.6-0.1,1.2-0.1c0.6,0,0.6,0.1,1.2,0.1
				c0.6,0,0.6,0.1,1.2,0.1c0.6,0,0.6,0.2,1.2,0.2c0.6,0,0.6,0.1,1.2,0.1s0.6-0.5,1.2-0.5c0,0,0,0.4,0,0.4c0.4,0,0.8-0.2,1.2-0.1
				c0.4,0.1,0.7,0.3,1,0.5c0.3,0.2,0.4,0.7,0.6,1c0.3,0.3,0.5,0.5,0.7,0.8c0.2,0.3,0.3,0.7,0.4,1c0.1,0.3,0.2,0.7,0.3,1
				c0.1,0.4,0.1,0.7,0.1,1.1c0,0.6,0.1,0.6,0.1,1.2c0,0.6,0.1,0.6,0.1,1.2c0,0.6,0.1,0.6,0.1,1.2c0,0.6-0.3,0.6-0.3,1.2
				c0,0.6,0.3,0.6,0.3,1.2c0,0.6-0.3,0.6-0.3,1.2c0,0.6,0.3,0.6,0.3,1.2c0,0.6,0,0.6,0,1.2c0,0.6,0,0.6,0,1.2c0,0.6-0.1,0.6-0.1,1.3
				c0,0.6,0.1,0.6,0.1,1.3c0,0.4,0.3,0.8,0.2,1.1c-0.1,0.4-0.3,0.7-0.4,1.1c-0.1,0.4-0.5,0.6-0.7,0.9c-0.2,0.3-0.2,0.8-0.4,1.1
				c-0.3,0.3-0.5,0.6-0.8,0.8c-0.3,0.2-0.7,0.4-1.1,0.5c-0.4,0.1-0.8,0-1.2,0c-0.6,0-0.6-0.1-1.2-0.1c-0.6,0-0.6,0.2-1.2,0.2
				c-0.6,0-0.6-0.1-1.2-0.1c-0.6,0-0.6-0.3-1.2-0.3c-0.6,0-0.6,0.2-1.2,0.2c-0.6,0-0.6,0.3-1.2,0.3c-0.6,0-0.6,0.1-1.2,0.1
				c-0.6,0-0.6-0.3-1.2-0.3c-0.6,0-0.6,0.3-1.2,0.3c-0.6,0-0.6-0.2-1.2-0.2c-0.6,0-0.6,0.2-1.2,0.2c-0.6,0-0.6-0.4-1.2-0.4
				c-0.6,0-0.6-0.1-1.2-0.1c-0.6,0-0.6,0.1-1.2,0.1c-0.6,0-0.6,0-1.2,0c-0.6,0-0.6,0.1-1.2,0.1c-0.6,0-0.6-0.2-1.2-0.2
				c-0.6,0-0.6,0.3-1.2,0.3c-0.6,0-0.6,0.2-1.2,0.2c-0.6,0-0.6-0.2-1.2-0.2c-0.6,0-0.6,0.2-1.2,0.2c-0.6,0-0.6-0.4-1.2-0.4
				c-0.6,0-0.6,0.1-1.2,0.1c-0.6,0-0.6,0.2-1.2,0.2c-0.6,0-0.6-0.3-1.2-0.3c-0.6,0-0.6,0.3-1.2,0.3c-0.6,0-0.6-0.1-1.2-0.1
				c-0.6,0-0.6-0.2-1.2-0.2c-0.6,0-0.6-0.2-1.2-0.2c-0.6,0-0.6,0.3-1.2,0.3c-0.6,0-0.6-0.3-1.2-0.3c-0.6,0-0.6,0.5-1.2,0.5
				c-0.6,0-0.6-0.4-1.2-0.4s-0.6,0-1.2,0.1c0.2,0.3,0.4,0.7,0.6,1c0.3,0.3,0.7,0.5,0.9,0.7c0.3,0.3,0.7,0.4,1,0.6
				c0.3,0.2,0.5,0.7,0.8,0.9c0.4,0.2,0.8,0.2,1.2,0.3c0.4,0.1,0.7,0.3,1.1,0.4c0.4,0.1,0.8-0.3,1.2-0.3c0.6,0,0.6,0.1,1.2,0.1
				c0.6,0,0.6,0.3,1.2,0.3c0.6,0,0.6-0.3,1.2-0.3c0.6,0,0.6,0.5,1.2,0.5c0.6,0,0.6-0.3,1.2-0.3c0.6,0,0.6,0.2,1.2,0.2
				c0.6,0,0.6-0.4,1.2-0.4c0.6,0,0.6,0.1,1.2,0.1c0.6,0,0.6,0.2,1.2,0.2c0.6,0,0.6-0.2,1.2-0.2c0.6,0,0.6,0.1,1.2,0.1
				c0.6,0,0.6,0,1.2,0c0.6,0,0.6-0.1,1.2-0.1c0.6,0,0.6,0.1,1.2,0.1c0.6,0,0.6,0.2,1.2,0.2c0.6,0,0.6-0.3,1.2-0.3
				c0.6,0,0.6,0.1,1.2,0.1c0.6,0,0.6-0.1,1.2-0.1c0.6,0,0.6,0.2,1.2,0.2c0.6,0,0.6-0.3,1.2-0.3c0.6,0,0.6,0.2,1.2,0.2
				c0.6,0,0.6-0.2,1.2-0.2c0.6,0,0.6,0.3,1.2,0.3c0.6,0,0.6-0.2,1.2-0.2c0.6,0,0.6-0.1,1.2-0.1c0.6,0,0.6,0.1,1.2,0.1
				c0.6,0,0.6,0.2,1.2,0.2s0.6-0.4,1.2-0.4c0.4,0,0.8,0.3,1.2,0.2c0.4-0.1,0.8-0.2,1.2-0.3c0.4-0.1,0.8-0.3,1.1-0.5
				c0.4-0.2,0.8-0.3,1.1-0.5c0.3-0.2,0.4-0.8,0.7-1c0.3-0.3,0.6-0.5,0.8-0.8c0.2-0.3,0.8-0.4,1-0.8c0.2-0.3,0-0.9,0.2-1.2
				c0.2-0.4,0.6-0.6,0.8-1c0.1-0.4,0.4-0.7,0.5-1.1c0.1-0.4-0.3-0.9-0.3-1.3c0-0.4,0.5-0.8,0.5-1.2c0-0.6-0.3-0.6-0.3-1.2
				c0-0.6,0.1-0.6,0.1-1.2c0-0.6,0.2-0.6,0.2-1.2c0-0.6-0.2-0.6-0.2-1.2c0-0.6-0.2-0.6-0.2-1.2c0-0.6,0.3-0.6,0.3-1.2
				c0-0.6,0-0.6,0-1.2c0-0.6-0.2-0.6-0.2-1.2c0-0.6-0.1-0.6-0.1-1.2c0-0.6,0.4-0.6,0.4-1.2s-0.3-0.6-0.3-1.2c0-0.4,0.2-0.8,0.1-1.2
				c0-0.4,0-0.8-0.1-1.2c-0.1-0.4-0.2-0.8-0.3-1.2c-0.1-0.4-0.3-0.8-0.5-1.1c-0.2-0.4-0.5-0.7-0.7-1c-0.2-0.3-0.5-0.6-0.8-0.9
				c-0.3-0.3-0.4-0.8-0.7-1.1c-0.3-0.3-0.6-0.6-0.9-0.8c-0.3-0.2-0.7-0.4-1.1-0.5c-0.3-0.2-0.8-0.2-1.1-0.3
				c-0.4-0.1-0.8-0.1-1.1-0.2c-0.4-0.1-0.8,0-1.1,0c-0.6,0-0.6-0.5-1.2-0.5c-0.6,0-0.6,0-1.2,0c-0.6,0-0.6,0.1-1.2,0.1
				c-0.6,0-0.6,0.3-1.2,0.3c-0.6,0-0.6,0-1.2,0c-0.6,0-0.6-0.2-1.2-0.2c-0.6,0-0.6,0.4-1.2,0.4c-0.6,0-0.6-0.3-1.2-0.3
				c-0.6,0-0.6,0-1.2,0c-0.6,0-0.6,0-1.2,0c-0.6,0-0.6,0.3-1.2,0.3c-0.6,0-0.6-0.3-1.2-0.3c-0.6,0-0.6,0.3-1.2,0.3
				c-0.6,0-0.6,0.1-1.2,0.1c-0.6,0-0.6-0.1-1.2-0.1c-0.6,0-0.6-0.3-1.2-0.3c-0.6,0-0.6,0.1-1.2,0.1c-0.6,0-0.6,0.2-1.2,0.2
				c-0.6,0-0.6,0-1.2,0c-0.6,0-0.6-0.2-1.2-0.2c-0.6,0-0.6,0.1-1.2,0.1c-0.6,0-0.6,0-1.2,0c-0.6,0-0.6,0.3-1.2,0.3
				c-0.6,0-0.6-0.1-1.2-0.1c-0.6,0-0.6-0.3-1.2-0.3c-0.6,0-0.6,0.2-1.2,0.2c-0.6,0-0.6-0.2-1.2-0.2c-0.6,0-0.6,0.3-1.2,0.3
				c0,0,0-0.3,0-0.3c-0.4,0-0.8,0.1-1.2,0c-0.4-0.1-0.6-0.5-1-0.7c-0.3-0.2-0.8-0.2-1.1-0.5c-0.3-0.3-0.5-0.6-0.7-1
				c-0.2-0.3-0.5-0.6-0.6-1C5.2,77.7,5,77.2,5,76.8c0-0.6,0.3-0.6,0.3-1.2C5.3,75,5,75,5,74.4c0-0.6,0.2-0.6,0.2-1.2
				c0-0.6,0-0.6,0-1.2c0-0.6-0.1-0.6-0.1-1.2c0-0.6,0-0.6,0-1.2c0-0.6,0.4-0.6,0.4-1.2c0-0.6-0.3-0.6-0.3-1.2c0-0.6,0.2-0.6,0.2-1.2
				c0-0.6,0-0.6,0-1.2c0-0.6-0.1-0.6-0.1-1.2c0-0.6-0.1-0.6-0.1-1.2c0-0.6-0.3-0.6-0.3-1.2c0-0.6,0.3-0.6,0.3-1.2
				c0-0.6,0.2-0.6,0.2-1.2c0-0.6-0.2-0.6-0.2-1.2c0-0.6-0.1-0.6-0.1-1.2c0-0.6-0.1-0.6-0.1-1.2c0-0.6-0.1-0.6-0.1-1.2
				c0-0.6,0-0.6,0-1.2c0-0.6,0.5-0.6,0.5-1.2c0-0.6,0-0.6,0-1.2C5.5,50,5,50,5,49.4c0-0.6,0.3-0.6,0.3-1.2c0-0.6,0.2-0.6,0.2-1.2
				c0-0.6-0.1-0.6-0.1-1.2c0-0.6-0.4-0.6-0.4-1.2C5,44,5.2,44,5.2,43.4c0-0.6,0.1-0.6,0.1-1.2c0-0.6-0.1-0.6-0.1-1.2
				c0-0.6-0.1-0.6-0.1-1.2c0-0.6,0.3-0.6,0.3-1.2s0.1-0.6,0.1-1.2c0-0.4-0.2-0.8-0.1-1.2c0.1-0.4,0.3-0.7,0.4-1.1
				c0.1-0.4-0.1-0.9,0.1-1.3c0.2-0.4,0.4-0.7,0.5-1.1C6.6,32.4,6.8,32,7,31.7c0.2-0.3,0.8-0.4,1-0.7c0.3-0.3,0.4-0.7,0.7-1
				C9,29.6,9.3,29.3,9.6,29C9.9,28.8,10.4,28.8,10.7,28.6z"/>
		</g>
		<g>
			<path class="st0" d="M67.5,5.6c0.5,0.3,0.8-0.1,1.3,0.2C69.3,6,69.3,6,69.9,6.3c0.5,0.3,0.5,0.4,1,0.7c0.5,0.3,0.3,0.6,0.9,0.9
				c0.5,0.3,0.5,0.3,1.1,0.6c0.5,0.3,0.7,0,1.2,0.3C74.6,9,74.4,9.3,75,9.6c0.5,0.3,0.5,0.4,1,0.7c0.5,0.3,0.6,0.2,1.1,0.4
				c0.5,0.3,0.5,0.4,1,0.7c0.5,0.3,0.6,0.2,1.1,0.5c0.5,0.3,0.5,0.3,1.1,0.6c0.5,0.3,0.5,0.3,1.1,0.6c0.5,0.3,0.4,0.6,0.9,0.9
				c0.5,0.3,0.7-0.1,1.3,0.2c0.5,0.3,0.5,0.3,1,0.6c0.5,0.3,0.5,0.3,1,0.6c0.5,0.3,0.3,0.6,0.9,0.9c0.5,0.3,0.7-0.1,1.3,0.2
				c0.5,0.3,0.3,0.6,0.9,0.9c0.5,0.3,0.7,0,1.2,0.3c0.5,0.3,0.3,0.7,0.8,1c0.5,0.3,0.6,0.2,1.1,0.4c0.5,0.3,0.7,0,1.2,0.3
				c0.5,0.3,0.5,0.3,1,0.6c0.5,0.3,0.4,0.5,1,0.8c0.5,0.3,0.4,0.5,0.9,0.8c0.5,0.3,0.7,0,1.2,0.3c0.5,0.3,0.4,0.5,0.9,0.8
				c0.5,0.3,0.6,0.1,1.2,0.4c0.5,0.3,0.5,0.4,1,0.7c0.5,0.3,0.6,0.2,1.1,0.5c0.5,0.3,0.4,0.6,0.9,0.9c0.5,0.3,0.7,0,1.2,0.3
				c0.5,0.3,0.5,0.4,1,0.7c0.5,0.3,0.6,0.2,1.1,0.5c0.5,0.3,0.4,0.5,0.9,0.8c0.5,0.3,0.6,0.2,1.1,0.5c0.3,0.2,0.7,0.3,1,0.6
				c0.3,0.3,0.3,0.7,0.6,1.1c0.2,0.3,0.6,0.6,0.8,0.9c0.2,0.4,0,0.9,0.1,1.2c0.1,0.4,0.2,0.7,0.2,1.1c0,0.6,0.2,0.6,0.2,1.2
				c0,0.6-0.2,0.6-0.2,1.2c0,0.6,0.3,0.6,0.3,1.2c0,0.6-0.2,0.6-0.2,1.2c0,0.6,0.2,0.6,0.2,1.2c0,0.6,0.3,0.6,0.3,1.2
				c0,0.6-0.4,0.6-0.4,1.2c0,0.6,0.4,0.6,0.4,1.2c0,0.6-0.2,0.6-0.2,1.2c0,0.6,0.2,0.6,0.2,1.2c0,0.6-0.5,0.6-0.5,1.2
				c0,0.6,0.1,0.6,0.1,1.2c0,0.6,0.2,0.6,0.2,1.2c0,0.6,0,0.6,0,1.2c0,0.6-0.2,0.6-0.2,1.2c0,0.6-0.1,0.6-0.1,1.2
				c0,0.6,0.2,0.6,0.2,1.2c0,0.6,0.2,0.6,0.2,1.2c0,0.6-0.1,0.6-0.1,1.2c0,0.6-0.1,0.6-0.1,1.2c0,0.6,0,0.6,0,1.2
				c0,0.6,0.1,0.6,0.1,1.2c0,0.6-0.4,0.6-0.4,1.2c0,0.6,0,0.6,0,1.2c0,0.6,0,0.6,0,1.2c0,0.6,0.5,0.6,0.5,1.2c0,0.6-0.1,0.6-0.1,1.2
				c0,0.6-0.4,0.6-0.4,1.2c0,0.6,0.4,0.6,0.4,1.2c0,0.6-0.3,0.6-0.3,1.2c0,0.6,0.4,0.6,0.4,1.2c0,0.6-0.2,0.6-0.2,1.2
				c0,0.6-0.1,0.6-0.1,1.2c0,0.6,0.2,0.6,0.2,1.2c0,0.6-0.3,0.6-0.3,1.2c0,0.6,0.2,0.6,0.2,1.2c0,0.6,0.1,0.6,0.1,1.2
				c0,0.6-0.2,0.6-0.2,1.2c0,0.6,0.1,0.6,0.1,1.2c0,0.6-0.3,0.6-0.3,1.2c0,0.6,0.5,0.6,0.5,1.2c0,0.6,0,0.6,0,1.2
				c0,0.6-0.1,0.6-0.1,1.2c0,0.6-0.4,0.6-0.4,1.2c0,0.6,0.2,0.6,0.2,1.2c0,0.6,0,0.6,0,1.2c0,0.6-0.1,0.6-0.1,1.2
				c0,0.6,0.1,0.6,0.1,1.2c0,0.6,0.1,0.6,0.1,1.2c0,0.6-0.1,0.6-0.1,1.2c0,0.6,0,0.6,0,1.2c0,0.6,0.3,0.6,0.3,1.2
				c0,0.6-0.3,0.6-0.3,1.2c0,0.6,0.4,0.6,0.4,1.2c0,0.6,0,0.6,0,1.2c0,0.6-0.1,0.6-0.1,1.2c0,0.6-0.1,0.6-0.1,1.2
				c0,0.6,0.1,0.6,0.1,1.2c0,0.6,0.2,0.6,0.2,1.2c0,0.6-0.3,0.6-0.3,1.2c0,0.6,0,0.6,0,1.2c0,0.6,0.3,0.6,0.3,1.2s-0.1,0.6-0.1,1.2
				c0,0.5-0.2,0.9-0.5,1.2c-0.3,0.3-0.8,0.5-1.2,0.5c-0.6,0-0.6,0.1-1.2,0.1c-0.6,0-0.6-0.1-1.2-0.1c-0.6,0-0.6,0.2-1.2,0.2
				c-0.6,0-0.6-0.1-1.2-0.1c-0.6,0-0.6-0.1-1.2-0.1c-0.6,0-0.6,0.1-1.2,0.1c-0.6,0-0.6,0-1.2,0c-0.6,0-0.6,0-1.2,0
				c-0.6,0-0.6-0.1-1.2-0.1c-0.6,0-0.6-0.1-1.2-0.1c-0.6,0-0.6,0.1-1.2,0.1c-0.6,0-0.6,0-1.2,0c-0.6,0-0.6-0.1-1.2-0.1
				c-0.6,0-0.6,0.3-1.2,0.3c-0.6,0-0.6-0.4-1.2-0.4c-0.6,0-0.6,0-1.2,0c-0.6,0-0.6,0.4-1.2,0.4c-0.6,0-0.6-0.2-1.2-0.2
				c-0.6,0-0.6,0.3-1.2,0.3c-0.6,0-0.6-0.3-1.2-0.3c-0.6,0-0.6-0.1-1.2-0.1c-0.6,0-0.6,0.4-1.2,0.4c-0.6,0-0.6-0.2-1.2-0.2
				c-0.6,0-0.6-0.1-1.2-0.1c-0.6,0-0.6-0.1-1.2-0.1c-0.6,0-0.6,0.3-1.2,0.3c-0.6,0-0.6-0.3-1.2-0.3c-0.6,0-0.6,0.3-1.2,0.3
				c-0.6,0-0.6-0.1-1.2-0.1c-0.6,0-0.6,0.3-1.2,0.3c-0.6,0-0.6-0.4-1.2-0.4c-0.6,0-0.6,0.2-1.2,0.2c-0.6,0-0.6-0.1-1.2-0.1
				c-0.5,0-1,0.1-1.3-0.3c-0.3-0.3-0.2-0.8-0.2-1.3c0-0.6-0.2-0.6-0.2-1.2c0-0.6-0.1-0.6-0.1-1.2c0-0.6-0.1-0.6-0.1-1.2
				c0-0.6,0.1-0.6,0.1-1.2c0-0.6,0.2-0.6,0.2-1.2c0-0.6-0.1-0.6-0.1-1.2c0-0.6-0.2-0.6-0.2-1.2c0-0.6,0.2-0.6,0.2-1.2
				c0-0.6,0-0.6,0-1.2c0-0.6,0.2-0.6,0.2-1.2c0-0.6-0.5-0.6-0.5-1.2c0-0.6,0.2-0.6,0.2-1.2c0-0.6-0.1-0.6-0.1-1.2
				c0-0.6,0.2-0.6,0.2-1.2c0-0.6-0.1-0.6-0.1-1.2c0-0.6,0-0.6,0-1.2c0-0.6,0-0.6,0-1.2c0-0.6,0-0.6,0-1.2c0-0.6,0.3-0.6,0.3-1.2
				c0-0.6-0.2-0.6-0.2-1.2c0-0.6,0.1-0.6,0.1-1.2c0-0.6-0.1-0.6-0.1-1.2c0-0.6,0.2-0.6,0.2-1.2c0-0.6,0.1-0.6,0.1-1.2
				c0-0.6-0.5-0.6-0.5-1.2c0-0.6,0.4-0.6,0.4-1.2c0-0.6-0.3-0.6-0.3-1.2c0-0.6,0.4-0.6,0.4-1.2c0-0.6,0-0.6,0-1.2
				c0-0.6-0.5-0.6-0.5-1.2c0-0.6,0-0.6,0-1.2c0-0.6,0.3-0.6,0.3-1.2c0-0.6-0.2-0.6-0.2-1.2c0-0.6,0.3-0.6,0.3-1.2
				c0-0.6,0.2-0.6,0.2-1.2c0-0.6-0.3-0.6-0.3-1.2c0-0.6-0.3-0.6-0.3-1.2c0-0.6,0.5-0.6,0.5-1.2c0-0.6,0-0.6,0-1.2c0-0.6,0-0.6,0-1.2
				c0-0.6-0.3-0.6-0.3-1.2c0-0.6,0.3-0.6,0.3-1.2c0-0.6-0.3-0.6-0.3-1.2c0-0.6,0.3-0.6,0.3-1.2c0-0.6-0.3-0.6-0.3-1.2
				c0-0.6,0.3-0.6,0.3-1.2c0-0.6-0.1-0.6-0.1-1.2c0-0.6-0.4-0.6-0.4-1.2c0-0.6,0-0.6,0-1.2c0-0.6,0.1-0.6,0.1-1.2
				c0-0.6,0.3-0.6,0.3-1.2c0-0.6-0.1-0.6-0.1-1.2c0-0.6,0.1-0.6,0.1-1.2c0-0.6,0-0.6,0-1.2c0-0.6-0.2-0.6-0.2-1.2
				c0-0.6-0.1-0.6-0.1-1.2c0-0.6-0.1-0.6-0.1-1.2c0-0.6-0.1-0.6-0.1-1.2c0-0.6,0.3-0.6,0.3-1.2c0-0.6-0.3-0.6-0.3-1.2
				c0-0.6,0.3-0.6,0.3-1.2c0-0.6,0.1-0.6,0.1-1.2c0-0.6,0-0.6,0-1.2c0-0.6-0.1-0.6-0.1-1.2c0-0.6-0.2-0.6-0.2-1.2
				c0-0.6,0.1-0.6,0.1-1.2c0-0.6,0.2-0.6,0.2-1.2c0-0.6-0.3-0.6-0.3-1.2c0-0.6,0.4-0.6,0.4-1.2c0-0.6-0.3-0.6-0.3-1.2
				c0-0.6,0.4-0.6,0.4-1.2c0-0.6-0.2-0.6-0.2-1.2c0-0.6-0.2-0.6-0.2-1.2c0-0.6,0-0.6,0-1.2c0-0.6,0.3-0.6,0.3-1.2
				c0-0.6,0.1-0.6,0.1-1.2c0-0.6,0-0.6,0-1.2c0-0.6-0.2-0.6-0.2-1.2c0-0.6-0.1-0.6-0.1-1.2c0-0.6,0.4-0.6,0.4-1.2c0-0.6,0-0.6,0-1.2
				c0-0.6-0.1-0.6-0.1-1.2c0-0.6-0.3-0.6-0.3-1.2c0-0.6,0.1-0.6,0.1-1.2c0-0.6,0.2-0.6,0.2-1.2s-0.2-0.6-0.2-1.2 M66.4,0.3
				c-0.5,0-0.8,0.5-1.1,0.7c-0.4,0.2-0.6,0.4-0.8,0.8c-0.2,0.3-0.4,0.6-0.5,1.1c-0.1,0.4-0.5,0.8-0.5,1.2c0,0.6,0,0.6,0,1.2
				c0,0.6,0.4,0.6,0.4,1.2c0,0.6-0.3,0.6-0.3,1.2c0,0.6-0.1,0.6-0.1,1.2c0,0.6,0.2,0.6,0.2,1.2c0,0.6-0.1,0.6-0.1,1.2
				c0,0.6,0.1,0.6,0.1,1.2c0,0.6,0,0.6,0,1.2c0,0.6,0,0.6,0,1.2c0,0.6-0.3,0.6-0.3,1.2c0,0.6,0.4,0.6,0.4,1.2c0,0.6,0,0.6,0,1.2
				c0,0.6,0,0.6,0,1.2c0,0.6-0.4,0.6-0.4,1.2c0,0.6,0.4,0.6,0.4,1.2c0,0.6-0.4,0.6-0.4,1.2c0,0.6,0.4,0.6,0.4,1.2
				c0,0.6-0.4,0.6-0.4,1.2c0,0.6,0.2,0.6,0.2,1.2c0,0.6,0.3,0.6,0.3,1.2c0,0.6,0,0.6,0,1.2c0,0.6-0.2,0.6-0.2,1.2
				c0,0.6-0.2,0.6-0.2,1.2c0,0.6,0.4,0.6,0.4,1.2c0,0.6-0.2,0.6-0.2,1.2c0,0.6,0.2,0.6,0.2,1.2c0,0.6-0.1,0.6-0.1,1.2
				c0,0.6,0.1,0.6,0.1,1.2c0,0.6-0.4,0.6-0.4,1.2c0,0.6,0.3,0.6,0.3,1.2c0,0.6-0.1,0.6-0.1,1.2c0,0.6,0.1,0.6,0.1,1.2
				c0,0.6-0.2,0.6-0.2,1.2c0,0.6,0.1,0.6,0.1,1.2c0,0.6,0.2,0.6,0.2,1.2c0,0.6-0.3,0.6-0.3,1.2c0,0.6,0.3,0.6,0.3,1.2
				c0,0.6-0.3,0.6-0.3,1.2c0,0.6,0,0.6,0,1.2c0,0.6,0.2,0.6,0.2,1.2c0,0.6-0.2,0.6-0.2,1.2c0,0.6,0.3,0.6,0.3,1.2
				c0,0.6-0.2,0.6-0.2,1.2c0,0.6,0.2,0.6,0.2,1.2c0,0.6,0.3,0.6,0.3,1.2c0,0.6-0.4,0.6-0.4,1.2c0,0.6,0.4,0.6,0.4,1.2
				c0,0.6-0.2,0.6-0.2,1.2c0,0.6,0.2,0.6,0.2,1.2c0,0.6-0.5,0.6-0.5,1.2c0,0.6,0.1,0.6,0.1,1.2c0,0.6,0.2,0.6,0.2,1.2
				c0,0.6,0,0.6,0,1.2c0,0.6-0.2,0.6-0.2,1.2c0,0.6-0.1,0.6-0.1,1.2c0,0.6,0.2,0.6,0.2,1.2c0,0.6,0.2,0.6,0.2,1.2
				c0,0.6-0.1,0.6-0.1,1.2c0,0.6-0.1,0.6-0.1,1.2c0,0.6,0,0.6,0,1.2c0,0.6,0.1,0.6,0.1,1.2c0,0.6-0.4,0.6-0.4,1.2c0,0.6,0,0.6,0,1.2
				c0,0.6,0,0.6,0,1.2c0,0.6,0.5,0.6,0.5,1.2c0,0.6-0.1,0.6-0.1,1.2c0,0.6-0.4,0.6-0.4,1.2c0,0.6,0.4,0.6,0.4,1.2
				c0,0.6-0.3,0.6-0.3,1.2c0,0.6,0.4,0.6,0.4,1.2c0,0.6-0.2,0.6-0.2,1.2c0,0.6-0.1,0.6-0.1,1.2c0,0.6,0.2,0.6,0.2,1.2
				c0,0.6-0.3,0.6-0.3,1.2c0,0.6,0.2,0.6,0.2,1.2c0,0.6,0.1,0.6,0.1,1.2c0,0.6-0.2,0.6-0.2,1.2c0,0.6,0.1,0.6,0.1,1.2
				c0,0.6-0.3,0.6-0.3,1.2c0,0.6,0.5,0.6,0.5,1.2c0,0.6,0,0.6,0,1.2c0,0.6-0.1,0.6-0.1,1.2c0,0.6-0.4,0.6-0.4,1.2
				c0,0.6,0.2,0.6,0.2,1.2c0,0.6,0,0.6,0,1.2c0,0.6-0.1,0.6-0.1,1.2s0.1,0.6,0.1,1.2c0,0.4,0.2,0.9,0.3,1.3c0.1,0.4,0.1,0.9,0.3,1.3
				c0.2,0.4,0.4,0.8,0.6,1.1c0.3,0.3,0.8,0.5,1.1,0.7c0.3,0.3,0.5,0.8,0.9,1c0.4,0.2,0.9,0,1.3,0.1c0.4,0.1,0.8,0.1,1.2,0.1
				c0.6,0,0.6,0.1,1.2,0.1c0.6,0,0.6,0.1,1.2,0.1c0.6,0,0.6-0.1,1.2-0.1c0.6,0,0.6-0.2,1.2-0.2c0.6,0,0.6,0.3,1.2,0.3
				c0.6,0,0.6,0,1.2,0c0.6,0,0.6-0.3,1.2-0.3c0.6,0,0.6,0.1,1.2,0.1c0.6,0,0.6,0,1.2,0c0.6,0,0.6,0,1.2,0c0.6,0,0.6-0.1,1.2-0.1
				c0.6,0,0.6,0.1,1.2,0.1c0.6,0,0.6-0.2,1.2-0.2c0.6,0,0.6,0.1,1.2,0.1c0.6,0,0.6,0.1,1.2,0.1c0.6,0,0.6-0.1,1.2-0.1
				c0.6,0,0.6,0,1.2,0c0.6,0,0.6,0,1.2,0c0.6,0,0.6,0.1,1.2,0.1c0.6,0,0.6,0.1,1.2,0.1c0.6,0,0.6-0.1,1.2-0.1c0.6,0,0.6,0,1.2,0
				c0.6,0,0.6,0.1,1.2,0.1c0.6,0,0.6-0.3,1.2-0.3c0.6,0,0.6,0.4,1.2,0.4c0.6,0,0.6,0,1.2,0c0.6,0,0.6-0.4,1.2-0.4
				c0.6,0,0.6,0.2,1.2,0.2c0.6,0,0.6-0.3,1.2-0.3c0.6,0,0.6,0.3,1.2,0.3c0.6,0,0.6,0.1,1.2,0.1c0.6,0,0.6-0.4,1.2-0.4
				s0.6,0.2,1.2,0.2c0.4,0,0.9,0.1,1.3,0c0.4-0.1,0.9-0.2,1.3-0.4c0.4-0.2,0.6-0.7,0.9-0.9c0.3-0.3,0.9-0.4,1.1-0.7
				c0.3-0.3,0.3-0.9,0.4-1.3c0.2-0.4,0.4-0.8,0.5-1.2c0.1-0.4-0.2-0.9-0.2-1.3c0-0.6,0.4-0.6,0.4-1.2c0-0.6-0.2-0.6-0.2-1.2
				c0-0.6,0.1-0.6,0.1-1.2c0-0.6-0.3-0.6-0.3-1.2c0-0.6,0.3-0.6,0.3-1.2c0-0.6-0.2-0.6-0.2-1.2c0-0.6-0.1-0.6-0.1-1.2
				c0-0.6-0.1-0.6-0.1-1.2c0-0.6,0.1-0.6,0.1-1.2c0-0.6,0.2-0.6,0.2-1.2c0-0.6-0.1-0.6-0.1-1.2c0-0.6-0.2-0.6-0.2-1.2
				c0-0.6,0.2-0.6,0.2-1.2c0-0.6,0-0.6,0-1.2c0-0.6,0.2-0.6,0.2-1.2c0-0.6-0.5-0.6-0.5-1.2c0-0.6,0.2-0.6,0.2-1.2
				c0-0.6-0.1-0.6-0.1-1.2c0-0.6,0.2-0.6,0.2-1.2c0-0.6-0.1-0.6-0.1-1.2c0-0.6,0-0.6,0-1.2c0-0.6,0-0.6,0-1.2c0-0.6,0-0.6,0-1.2
				c0-0.6,0.3-0.6,0.3-1.2c0-0.6-0.2-0.6-0.2-1.2c0-0.6,0.1-0.6,0.1-1.2c0-0.6-0.1-0.6-0.1-1.2c0-0.6,0.2-0.6,0.2-1.2
				c0-0.6,0.1-0.6,0.1-1.2c0-0.6-0.5-0.6-0.5-1.2c0-0.6,0.4-0.6,0.4-1.2c0-0.6-0.3-0.6-0.3-1.2c0-0.6,0.4-0.6,0.4-1.2
				c0-0.6,0-0.6,0-1.2c0-0.6-0.5-0.6-0.5-1.2c0-0.6,0-0.6,0-1.2c0-0.6,0.3-0.6,0.3-1.2c0-0.6-0.2-0.6-0.2-1.2c0-0.6,0.3-0.6,0.3-1.2
				c0-0.6,0.2-0.6,0.2-1.2c0-0.6-0.3-0.6-0.3-1.2c0-0.6-0.3-0.6-0.3-1.2c0-0.6,0.5-0.6,0.5-1.2c0-0.6,0-0.6,0-1.2c0-0.6,0-0.6,0-1.2
				c0-0.6-0.3-0.6-0.3-1.2c0-0.6,0.3-0.6,0.3-1.2c0-0.6-0.3-0.6-0.3-1.2c0-0.6,0.3-0.6,0.3-1.2c0-0.6-0.3-0.6-0.3-1.2
				c0-0.6,0.3-0.6,0.3-1.2c0-0.6-0.1-0.6-0.1-1.2c0-0.6-0.4-0.6-0.4-1.2c0-0.6,0-0.6,0-1.2c0-0.6,0.1-0.6,0.1-1.2
				c0-0.6,0.3-0.6,0.3-1.2c0-0.6-0.1-0.6-0.1-1.2c0-0.6,0.1-0.6,0.1-1.2c0-0.6,0-0.6,0-1.2c0-0.6-0.2-0.6-0.2-1.2
				c0-0.6-0.1-0.6-0.1-1.2c0-0.6-0.1-0.6-0.1-1.2s-0.1-0.6-0.1-1.2c0-0.4,0.3-0.8,0.2-1.1c-0.1-0.4-0.5-0.7-0.6-1
				c-0.1-0.4,0.1-0.8-0.1-1.2c-0.1-0.4-0.3-0.7-0.4-1.1c-0.2-0.3-0.4-0.7-0.6-1c-0.2-0.3-0.5-0.6-0.7-0.9c-0.2-0.3-0.6-0.4-0.9-0.7
				c-0.3-0.3-0.5-0.6-0.8-0.8c-0.3-0.2-0.5-0.6-0.8-0.8c-0.5-0.3-0.7,0-1.2-0.3c-0.5-0.3-0.3-0.7-0.8-1c-0.5-0.3-0.7,0-1.2-0.3
				c-0.5-0.3-0.4-0.6-0.9-0.9c-0.5-0.3-0.6-0.2-1.1-0.5c-0.5-0.3-0.6-0.1-1.1-0.4c-0.5-0.3-0.5-0.3-1.1-0.6
				c-0.5-0.3-0.4-0.6-0.9-0.9c-0.5-0.3-0.5-0.4-1-0.7c-0.5-0.3-0.6-0.3-1.1-0.6c-0.5-0.3-0.6-0.1-1.2-0.4c-0.5-0.3-0.6-0.2-1.1-0.5
				c-0.5-0.3-0.3-0.6-0.9-0.9c-0.5-0.3-0.5-0.3-1.1-0.6c-0.5-0.3-0.6-0.2-1.1-0.5c-0.5-0.3-0.7-0.1-1.2-0.4c-0.5-0.3-0.5-0.4-1-0.7
				c-0.5-0.3-0.4-0.5-0.9-0.8c-0.5-0.3-0.6-0.1-1.1-0.4c-0.5-0.3-0.4-0.5-1-0.8c-0.5-0.3-0.5-0.3-1-0.6c-0.5-0.3-0.6-0.2-1.1-0.5
				c-0.5-0.3-0.5-0.4-1-0.7c-0.5-0.3-0.7,0.1-1.3-0.2c-0.5-0.3-0.5-0.3-1.1-0.6c-0.5-0.3-0.4-0.6-0.9-0.9c-0.5-0.3-0.6-0.2-1.1-0.5
				c-0.5-0.3-0.4-0.5-1-0.8c-0.5-0.3-0.6-0.3-1.1-0.6c-0.5-0.3-0.7,0-1.2-0.3c-0.5-0.3-0.5-0.4-1-0.7c-0.5-0.3-0.4-0.5-0.9-0.8
				c-0.5-0.3-0.6-0.1-1.1-0.4c-0.5-0.3-0.5-0.3-1.1-0.6c-0.5-0.3-0.4-0.5-0.9-0.8c-0.5-0.3-0.5-0.4-1-0.7c-0.5-0.3-0.6-0.3-1.1-0.6
				c-0.5-0.3-0.6-0.2-1.1-0.5c-0.5-0.3-0.6-0.2-1.1-0.5c-0.4-0.2-0.7-0.3-1-0.4c-0.4-0.1-0.8-0.2-1.1-0.2
				C66.3,0.6,66.4,0.3,66.4,0.3z"/>
		</g>
	</g>
	<g>
		<path class="st1" d="M160.4,110.2l-1.6,3.8h-1.6l5.2-12.1h1.8l5.5,12.1H168l-1.7-3.8H160.4z M165.8,108.9c-1.5-3.4-2.2-5-2.5-5.8
			h0c-0.2,0.8-1.1,2.9-2.4,5.8H165.8z"/>
		<path class="st1" d="M178.8,108.7v5.3h-1.5v-12.1h5.7c2.4,0,4.1,1.1,4.1,3.3c0,1.4-0.7,2.5-2.2,2.9c0.8,0.2,1.9,0.8,1.9,3v0.5
			c0,0.9,0,2,0.1,2.5h-1.6c-0.2-0.5-0.1-1.5-0.1-2.5v-0.4c0-1.9-0.7-2.4-2.9-2.4H178.8z M178.8,107.4h3.7c2,0,2.9-0.7,2.9-2.2
			c0-1.4-1-2-2.9-2h-3.8V107.4z"/>
		<path class="st1" d="M206.6,110.5c-0.7,2.1-2.2,3.8-5.6,3.8c-4,0-6.2-2.8-6.2-6.3c0-3.5,2.4-6.3,6.2-6.3c3.5,0,5.1,1.9,5.6,3.8
			h-1.6c-0.6-1.4-1.6-2.5-4-2.5c-2.8,0-4.6,2.1-4.6,5c0,2.8,1.8,5,4.6,5c2.4,0,3.3-1,4-2.5H206.6z"/>
		<path class="st1" d="M214.9,101.9h1.5v4.9h7.5v-4.9h1.5V114h-1.5v-5.8h-7.5v5.8h-1.5V101.9z"/>
		<path class="st1" d="M236,101.9V114h-1.5v-12.1H236z"/>
		<path class="st1" d="M248.4,103.3h-4.7v-1.3h10.9v1.3h-4.7V114h-1.5V103.3z"/>
		<path class="st1" d="M271.1,108.3h-7.3v4.4h8.1l-0.2,1.3h-9.4v-12.1h9.2v1.3h-7.7v3.8h7.3V108.3z"/>
		<path class="st1" d="M290.9,110.5c-0.7,2.1-2.2,3.8-5.6,3.8c-4,0-6.2-2.8-6.2-6.3c0-3.5,2.4-6.3,6.2-6.3c3.5,0,5.1,1.9,5.6,3.8
			h-1.6c-0.6-1.4-1.6-2.5-4-2.5c-2.8,0-4.6,2.1-4.6,5c0,2.8,1.8,5,4.6,5c2.4,0,3.3-1,4-2.5H290.9z"/>
		<path class="st1" d="M302.3,103.3h-4.7v-1.3h10.9v1.3h-4.7V114h-1.5V103.3z"/>
		<path class="st1" d="M317.7,101.9v6.9c0,3.3,1.9,4.2,3.8,4.2c2.3,0,3.7-1.1,3.7-4.2v-6.9h1.5v6.8c0,4-2.1,5.5-5.3,5.5
			c-3.2,0-5.3-1.6-5.3-5.4v-7H317.7z"/>
		<path class="st1" d="M337.2,108.7v5.3h-1.5v-12.1h5.7c2.4,0,4.1,1.1,4.1,3.3c0,1.4-0.7,2.5-2.2,2.9c0.8,0.2,1.9,0.8,1.9,3v0.5
			c0,0.9,0,2,0.1,2.5h-1.6c-0.2-0.5-0.1-1.5-0.1-2.5v-0.4c0-1.9-0.7-2.4-2.9-2.4H337.2z M337.2,107.4h3.7c2,0,2.9-0.7,2.9-2.2
			c0-1.4-1-2-2.9-2h-3.8V107.4z"/>
		<path class="st1" d="M362.9,108.3h-7.3v4.4h8.1l-0.2,1.3H354v-12.1h9.2v1.3h-7.7v3.8h7.3V108.3z"/>
	</g>
	<path class="st1" d="M315.3,55.5c0-3.7,0.7-7.2,2.2-10.3c1.5-3.2,3.3-5.9,5.7-8.2c2.3-2.3,4.9-4.2,7.8-5.5c2.9-1.3,5.8-2,8.7-2
		c3.1,0,6.1,0.7,9,2c2.9,1.3,5.5,3.2,7.8,5.5c2.3,2.3,4.1,5.1,5.5,8.2c1.4,3.2,2.1,6.6,2.1,10.3c0,3.3-0.6,6.4-1.9,9.6
		c-1.3,3.1-3,5.9-5.2,8.3c-2.2,2.4-4.8,4.4-7.7,5.9c-3,1.5-6.1,2.2-9.5,2.2c-3.5,0-6.7-0.7-9.7-2.2c-3-1.4-5.5-3.4-7.7-5.8
		c-2.2-2.4-3.9-5.2-5.1-8.3C315.9,62.1,315.3,58.9,315.3,55.5z M323.3,55.5c0,4.1,0.3,7.6,0.8,10.7c0.6,3,1.5,5.6,2.8,7.6
		c1.3,2,3,3.6,5,4.6c2,1,4.6,1.5,7.6,1.5c3,0,5.5-0.5,7.6-1.5c2.1-1,3.8-2.5,5.1-4.6c1.3-2,2.2-4.6,2.8-7.6c0.6-3,0.8-6.6,0.8-10.7
		c0-3.1-0.2-6.1-0.6-9.1c-0.4-2.9-1.2-5.5-2.4-7.8c-1.2-2.3-2.8-4.1-5-5.5c-2.1-1.4-4.9-2-8.3-2c-3.4,0-6.2,0.7-8.3,2
		c-2.1,1.4-3.8,3.2-5,5.5c-1.2,2.3-2,4.9-2.4,7.8C323.5,49.4,323.3,52.4,323.3,55.5z"/>
	<path class="st1" d="M190.5,59c-0.9-1.5-2-2.7-3.2-3.7c-1.3-0.9-2.6-1.6-3.9-2.1c-1.3-0.5-2.4-0.8-3.3-1.1l-8.3-2.6
		c-1.2-0.4-2.4-0.8-3.5-1.3c-1.2-0.5-2.2-1.1-3.1-1.8c-0.9-0.7-1.7-1.6-2.3-2.6c-0.6-1-0.9-2.2-0.9-3.7c0-1.8,0.4-3.3,1.1-4.5
		c0.7-1.2,1.7-2.1,2.8-2.8c1.1-0.7,2.4-1.2,3.7-1.5c1.3-0.3,2.5-0.4,3.6-0.4c1.9,0,3.7,0.4,5.1,1c1.5,0.7,2.7,1.6,3.8,2.8
		c1,1.1,1.9,2.5,2.5,4c0.6,1.4,1.1,2.9,1.3,4.4c0,0,0,0,0,0c0-0.1,0-0.1,0-0.2c0,0.3,0.2,0.6,0.5,0.6c0,0,0,0,0,0s0,0,0,0
		c0.3,0,0.5-0.2,0.5-0.5c0,0,0,0,0,0c0,0,0,0,0,0V32v-0.2c-0.1-0.3-0.3-0.6-0.6-0.6h-0.2c-0.2,0-0.3,0.1-0.5,0.2
		c-0.1,0.1-0.1,0.2-0.2,0.3c-0.2,0.4-0.4,0.6-0.6,0.7c-0.2,0.1-0.6,0.2-1.1,0.2c-0.6,0-1.2-0.1-1.8-0.4l-2.1-0.9
		c-0.8-0.3-1.7-0.7-2.8-0.9c-1.1-0.3-2.4-0.4-4-0.4c-2.2,0-4.2,0.4-6.1,1.1c-1.9,0.7-3.5,1.8-4.8,3c-1.3,1.3-2.4,2.8-3.1,4.6
		c-0.7,1.8-1.1,3.7-1.1,5.8c0,3.2,1,5.7,2.9,7.6c1.9,1.9,4.7,3.4,8.4,4.5l7.9,2.4c0.9,0.3,2,0.7,3,1.2c1.1,0.5,2,1.1,2.9,1.9
		c0.9,0.8,1.6,1.7,2.2,2.9c0.6,1.1,0.9,2.5,0.9,4c0,1.1-0.2,2.3-0.5,3.6c-0.4,1.3-1,2.5-1.9,3.6c-0.9,1.1-2.1,2-3.7,2.7
		c-1.5,0.7-3.5,1.1-5.9,1.1c-0.8,0-1.7,0-2.8-0.1c-1,0-2-0.2-3.1-0.5c-1.1-0.3-2.1-0.7-3.2-1.3c-1-0.6-2-1.4-3-2.5
		c-0.9-1.1-1.8-2.5-2.6-4.1c-0.7-1.5-1.3-3.5-1.8-5.7c0-0.1,0-0.2-0.1-0.3c-0.1-0.2-0.3-0.3-0.5-0.3h-0.1c-0.2,0-0.4,0.2-0.5,0.4
		v0.3v13.4c0,0,0,0.2,0,0.2v0c0,0.2,0.1,0.5,0.4,0.6l0,0c0.4,0.2,0.8,0,1-0.3c0,0,0,0,0,0c0.1-0.3,0.3-0.5,0.5-0.7
		c0.2-0.2,0.7-0.4,1.3-0.4c0.8,0,1.7,0.2,2.7,0.5c1,0.4,2,0.7,2.9,1c0.8,0.2,1.5,0.4,2.1,0.5c0.7,0.1,1.3,0.2,1.9,0.3
		c0.6,0.1,1.3,0.1,2.1,0.2c0.7,0,1.6,0,2.5,0c2.7,0,5.1-0.5,7.3-1.3c2.1-0.9,4-2.1,5.5-3.6c1.5-1.5,2.7-3.2,3.5-5.2
		c0.8-1.9,1.2-4,1.2-6.2C191.9,62.5,191.4,60.5,190.5,59z"/>
	<path class="st1" d="M248.5,78.8L248.5,78.8h-0.2c-2.9-0.1-5.7-1.6-6.4-3.2l-4-10.3l-7.5-19.4l-0.4-1.2L224.3,30l0-0.1
		c-0.1-0.3-0.4-0.5-0.7-0.5h-0.6c-0.3,0-0.6,0.2-0.7,0.5l0,0l-17.4,45.6l0.1-0.1c-0.6,1.6-3.5,3.2-6.5,3.3h-0.1h-0.1c0,0,0,0-0.1,0
		c0,0-0.1,0-0.1,0h0.1c-0.4,0.1-0.7,0.4-0.7,0.8c0,0.4,0.4,0.8,0.8,0.8h0.1h4.7h2.1h6.6h0.1c0.4,0,0.8-0.4,0.8-0.8v0
		c0-0.4-0.4-0.8-0.8-0.8h-0.1h-1.9c-2.2-0.1-3-1.2-3.1-2.6l5.2-13.5l2.3-6l6.4-16.8l1.6,4.2l5.7,15h-2.2h-2.1h-0.4h-2h-6l-0.6,1.6
		h6.4h2h5.5l6.1,15.5c0,1.4-0.9,2.4-3.1,2.5h-2.8h-0.1c-0.4,0-0.8,0.4-0.8,0.8c0,0.4,0.4,0.8,0.8,0.8h0.1h19.8h0.1
		c0.4,0,0.8-0.4,0.8-0.8C249.2,79.2,248.9,78.8,248.5,78.8z"/>
	<path class="st1" d="M304.8,48.3c-0.6-2.4-1.6-4.7-2.9-6.7c-1.3-2.1-3-3.9-5-5.5c-2.1-1.6-4.5-2.9-7.3-3.8c-1-0.3-1.9-0.6-2.7-0.8
		c-0.9-0.2-1.8-0.4-2.7-0.5c-1-0.1-2-0.2-3.1-0.3c-1.1-0.1-2.3-0.1-3.7-0.1c-0.7,0-1.3,0-2,0c-0.7,0-1.3,0-2,0c-0.7,0-1.3,0.1-2,0.1
		c-0.7,0-1.3,0-2,0l-12.1-0.1l0,0c-0.5,0-0.8,0.4-0.8,0.8c0,0.4,0.3,0.8,0.8,0.8l0.1,0l1.7,0c2.9,0.1,5.1,1.6,5.1,3.3l-0.5,40
		c-0.2,1.6-2.3,2.9-4.9,3l-2,0l-0.1,0c-0.4,0-0.8,0.4-0.8,0.8c0,0.4,0.3,0.8,0.8,0.8l0.1,0l11,0.1c0.7,0,1.4,0,2.2,0.1
		c0.8,0,1.5,0.1,2.3,0.1c0.8,0.1,1.6,0.1,2.4,0.1c0.8,0,1.5,0.1,2.2,0.1c1.6,0,3.1,0,4.3,0s2.4-0.1,3.5-0.2c1-0.1,2.1-0.3,3.1-0.6
		c1-0.3,2.1-0.7,3.2-1.1c2-0.8,3.9-1.9,5.7-3.2c1.8-1.4,3.3-3,4.6-4.8s2.4-4,3.1-6.5c0.8-2.4,1.2-5.2,1.2-8.3
		C305.7,53.2,305.4,50.7,304.8,48.3z M296.7,64.4c-0.6,2.5-1.7,5-3.2,7.5c-1,1.6-2.1,2.8-3.4,3.8c-1.2,1-2.6,1.7-4,2.2
		c-1.4,0.5-2.9,0.8-4.5,1c-1.6,0.1-3.1,0.2-4.7,0.2c-1.3,0-2.4,0-3.5-0.1c-1-0.1-2-0.1-2.8-0.2l0.5-46.4c0.9,0,1.8-0.1,2.8-0.1
		c1,0,2,0,3.2,0c3.9,0,7.2,0.6,9.8,1.8c2.6,1.2,4.7,2.8,6.3,4.9c1.6,2.1,2.7,4.6,3.4,7.5c0.7,2.9,1,6.2,0.9,9.8
		C297.6,59.1,297.3,61.9,296.7,64.4z"/>
</g>
</svg>
